<?xml version="1.0" encoding="iso-8859-1"?>
<!-- Generator: Adobe Illustrator 21.0.2, SVG Export Plug-In . SVG Version: 6.00 Build 0)  -->
<svg version="1.1" id="Layer_1" xmlns="http://www.w3.org/2000/svg" xmlns:xlink="http://www.w3.org/1999/xlink" x="0px" y="0px"
	 viewBox="0 0 290 60" style="enable-background:new 0 0 290 60;" xml:space="preserve">
<g>
	<g>
		<g>
			<path style="fill:#404041;" d="M65.099,32.976h3.657V7.837h-3.657V2.118h13.701v5.718h-3.657v25.139h3.657v5.719H65.099V32.976z"
				/>
			<path style="fill:#404041;" d="M106.352,1.5c10.765,0,18.903,8.191,18.903,18.649c0,10.766-8.138,19.163-18.903,19.163
				c-10.764,0-18.902-8.397-18.902-19.163C87.45,9.691,95.588,1.5,106.352,1.5z M106.352,33.027c6.593,0,11.898-5.564,11.898-12.878
				c0-7.007-5.305-12.364-11.898-12.364c-6.593,0-11.897,5.358-11.897,12.364C94.454,27.463,99.759,33.027,106.352,33.027z"/>
			<path style="fill:#404041;" d="M137.045,7.837h-3.348V2.118h16.379c6.696,0,11.383,4.121,11.383,11.024
				c0,6.594-4.533,9.325-6.078,9.634v0.103c0,0,1.133,0.515,1.803,1.855l3.553,7.058c0.568,1.082,1.443,1.184,2.575,1.184h0.67
				v5.719h-3.553c-2.729,0-3.915-0.413-5.099-2.731l-4.687-9.221c-0.772-1.443-1.545-1.7-3.451-1.7h-3.399v13.652h-6.747V7.837z
				 M149.149,19.273c3.4,0,5.408-2.112,5.408-5.77c0-3.606-2.009-5.666-5.305-5.666h-5.46v11.437H149.149z"/>
		</g>
		<g>
			<path style="fill:#1B75BB;" d="M170.921,34.769h3.801v3.926h-3.801V34.769z"/>
			<path style="fill:#404041;" d="M189.214,22.561c4.82,0,8.651,3.43,8.651,8.252c0,4.852-3.831,8.252-8.651,8.252
				c-4.789,0-8.62-3.4-8.62-8.252C180.594,25.991,184.425,22.561,189.214,22.561z M189.214,35.728c2.565,0,4.696-1.978,4.696-4.915
				c0-2.905-2.131-4.914-4.696-4.914c-2.533,0-4.665,2.009-4.665,4.914C184.548,33.75,186.681,35.728,189.214,35.728z"/>
			<path style="fill:#404041;" d="M204.51,26.95c0-0.464-0.248-0.681-0.68-0.681h-1.236v-3.338h3.584c1.39,0,2.1,0.587,2.1,1.916
				v0.927c0,0.587-0.061,0.989-0.061,0.989h0.061c0.711-2.256,2.595-4.049,5.005-4.049c0.34,0,0.71,0.062,0.71,0.062v3.863
				c0,0-0.402-0.062-0.957-0.062c-1.668,0-3.584,0.958-4.295,3.308c-0.216,0.773-0.34,1.638-0.34,2.566v6.243h-3.892V26.95z"/>
			<path style="fill:#404041;" d="M225.15,22.561c3.646,0,4.851,2.225,4.851,2.225h0.061c0,0,0-0.186,0-0.402
				c0-0.711,0.494-1.452,1.73-1.452h3.646v3.338h-1.205c-0.402,0-0.68,0.216-0.68,0.618v10.848c0,5.409-4.201,7.449-8.311,7.449
				c-1.977,0-4.079-0.556-5.592-1.36l1.205-3.091c0,0,1.947,1.051,4.357,1.051c2.379,0,4.449-1.02,4.449-3.863V37.18
				c0-0.371,0.031-0.835,0.031-0.835h-0.062c-0.927,1.329-2.286,2.04-4.387,2.04c-4.51,0-7.075-3.647-7.075-7.974
				C218.168,26.084,220.609,22.561,225.15,22.561z M229.754,30.442c0-3.586-1.792-4.544-3.924-4.544
				c-2.38,0-3.677,1.731-3.677,4.389c0,2.751,1.391,4.791,3.924,4.791C227.962,35.079,229.754,33.997,229.754,30.442z"/>
			<path style="fill:#EE4036;" d="M241.374,34.769h3.801v3.926h-3.801V34.769z"/>
			<path style="fill:#404041;" d="M252.962,26.95c0-0.464-0.247-0.681-0.679-0.681h-1.236v-3.338h3.738
				c1.452,0,2.07,0.649,2.07,2.071v7.263c0,1.917,0.494,3.215,2.44,3.215c2.843,0,4.419-2.503,4.419-5.316v-7.232h3.924v11.776
				c0,0.433,0.248,0.68,0.68,0.68h1.236v3.307h-3.615c-1.36,0-2.071-0.649-2.071-1.762V36.5c0-0.371,0.031-0.711,0.031-0.711h-0.061
				c-0.742,1.638-2.719,3.276-5.438,3.276c-3.368,0-5.438-1.699-5.438-5.995V26.95z"/>
			<path style="fill:#404041;" d="M275.704,20.768c0-0.463-0.247-0.68-0.679-0.68h-1.236V16.75h3.738
				c1.452,0,2.101,0.34,2.101,1.793v9.953h1.173c0.494,0,1.143-0.094,1.483-0.588l3.213-4.976h4.356l-3.986,5.934
				c-0.679,0.989-1.173,1.237-1.173,1.237v0.061c0,0,0.555,0.216,1.112,1.237l1.792,3.4c0.247,0.464,0.555,0.588,1.297,0.588h1.051
				v3.307h-2.904c-1.328,0-1.854-0.216-2.471-1.36l-2.626-4.945c-0.309-0.556-0.958-0.588-1.452-0.588h-0.864v6.893h-3.925V20.768z"
				/>
		</g>
		<g>
			<path style="fill:#1B75BB;" d="M64.663,52.61h1.771c0.613,0,0.886,0.058,1.124,0.157c0.562,0.238,0.903,0.791,0.903,1.491
				c0,0.783-0.46,1.383-1.133,1.566v0.016c0,0,0.059,0.074,0.153,0.23l1.303,2.331h-0.673l-1.354-2.438h-1.507v2.438h-0.588V52.61z
				 M66.673,55.452c0.724,0,1.184-0.453,1.184-1.178c0-0.478-0.196-0.832-0.545-1.013c-0.179-0.091-0.392-0.14-0.852-0.14h-1.209
				v2.331H66.673z"/>
			<path style="fill:#1B75BB;" d="M70.534,52.61h3.373v0.511h-2.785v2.109h2.274v0.511h-2.274v2.15h2.938v0.51h-3.526V52.61z"/>
			<path style="fill:#1B75BB;" d="M75.919,52.61h3.151v0.511h-2.564v2.175h2.197v0.51h-2.197v2.595h-0.588V52.61z"/>
			<path style="fill:#1B75BB;" d="M80.819,52.61h1.771c0.613,0,0.886,0.058,1.124,0.157c0.562,0.238,0.903,0.791,0.903,1.491
				c0,0.783-0.46,1.383-1.133,1.566v0.016c0,0,0.059,0.074,0.153,0.23l1.303,2.331h-0.673l-1.354-2.438h-1.507v2.438h-0.588V52.61z
				 M82.829,55.452c0.724,0,1.184-0.453,1.184-1.178c0-0.478-0.196-0.832-0.545-1.013c-0.179-0.091-0.392-0.14-0.852-0.14h-1.209
				v2.331H82.829z"/>
			<path style="fill:#1B75BB;" d="M86.69,52.61h0.588v5.791H86.69V52.61z"/>
			<path style="fill:#1B75BB;" d="M92.15,52.512c1.388,0,2.129,0.676,2.129,0.676l-0.315,0.428c0,0-0.698-0.577-1.789-0.577
				c-1.447,0-2.427,1.08-2.427,2.455c0,1.425,1.013,2.479,2.376,2.479c1.167,0,1.882-0.848,1.882-0.848v-0.98h-1.022v-0.511h1.584
				v2.768h-0.545v-0.437c0-0.124,0.008-0.246,0.008-0.246h-0.017c0,0-0.69,0.782-1.95,0.782c-1.635,0-2.93-1.277-2.93-2.998
				C89.136,53.83,90.43,52.512,92.15,52.512z"/>
			<path style="fill:#1B75BB;" d="M96.514,52.61h3.373v0.511h-2.785v2.109h2.274v0.511h-2.274v2.15h2.938v0.51h-3.526V52.61z"/>
			<path style="fill:#1B75BB;" d="M101.899,52.61h1.771c0.613,0,0.886,0.058,1.124,0.157c0.562,0.238,0.902,0.791,0.902,1.491
				c0,0.783-0.46,1.383-1.132,1.566v0.016c0,0,0.059,0.074,0.153,0.23l1.303,2.331h-0.673l-1.354-2.438h-1.508v2.438h-0.588V52.61z
				 M103.91,55.452c0.724,0,1.184-0.453,1.184-1.178c0-0.478-0.196-0.832-0.545-1.013c-0.179-0.091-0.392-0.14-0.852-0.14h-1.209
				v2.331H103.91z"/>
			<path style="fill:#1B75BB;" d="M110.726,56.556h-2.41l-0.681,1.845h-0.622l2.197-5.791h0.63l2.197,5.791h-0.622L110.726,56.556z
				 M109.517,53.212c0,0-0.127,0.478-0.23,0.75l-0.8,2.101h2.061l-0.783-2.101c-0.102-0.272-0.23-0.75-0.23-0.75H109.517z"/>
			<path style="fill:#1B75BB;" d="M114.502,53.121h-2.154V52.61h4.888v0.511h-2.146v5.28h-0.588V53.121z"/>
			<path style="fill:#1B75BB;" d="M118.686,52.61h0.588v5.791h-0.588V52.61z"/>
			<path style="fill:#1B75BB;" d="M124.172,52.512c1.695,0,3.049,1.294,3.049,2.957c0,1.697-1.354,3.031-3.049,3.031
				c-1.694,0-3.049-1.334-3.049-3.031C121.123,53.805,122.478,52.512,124.172,52.512z M124.172,57.973
				c1.346,0,2.436-1.087,2.436-2.504c0-1.383-1.09-2.43-2.436-2.43c-1.354,0-2.436,1.046-2.436,2.43
				C121.737,56.886,122.818,57.973,124.172,57.973z"/>
			<path style="fill:#1B75BB;" d="M129.073,52.61h0.571l3.058,4.168c0.204,0.289,0.494,0.783,0.494,0.783h0.017
				c0,0-0.051-0.478-0.051-0.783V52.61h0.588v5.791h-0.571l-3.058-4.168c-0.204-0.288-0.494-0.782-0.494-0.782h-0.017
				c0,0,0.051,0.477,0.051,0.782v4.168h-0.588V52.61z"/>
			<path style="fill:#231F20;" d="M144.588,56.556h-2.41l-0.681,1.845h-0.622l2.197-5.791h0.63l2.197,5.791h-0.622L144.588,56.556z
				 M143.379,53.212c0,0-0.128,0.478-0.23,0.75l-0.8,2.101h2.061l-0.784-2.101c-0.102-0.272-0.23-0.75-0.23-0.75H143.379z"/>
			<path style="fill:#231F20;" d="M147.402,52.61h0.588v5.791h-0.588V52.61z"/>
			<path style="fill:#231F20;" d="M150.248,52.61h1.771c0.613,0,0.886,0.058,1.124,0.157c0.562,0.238,0.902,0.791,0.902,1.491
				c0,0.783-0.46,1.383-1.132,1.566v0.016c0,0,0.059,0.074,0.153,0.23l1.303,2.331h-0.673l-1.354-2.438h-1.508v2.438h-0.588V52.61z
				 M152.258,55.452c0.724,0,1.184-0.453,1.184-1.178c0-0.478-0.196-0.832-0.545-1.013c-0.179-0.091-0.392-0.14-0.852-0.14h-1.209
				v2.331H152.258z"/>
			<path style="fill:#231F20;" d="M161.538,52.512c1.431,0,2.154,0.75,2.154,0.75l-0.315,0.421c0,0-0.698-0.643-1.822-0.643
				c-1.405,0-2.41,1.054-2.41,2.422c0,1.384,1.005,2.512,2.428,2.512c1.209,0,1.942-0.774,1.942-0.774l0.34,0.403
				c0,0-0.818,0.897-2.29,0.897c-1.772,0-3.032-1.342-3.032-3.031C158.532,53.788,159.826,52.512,161.538,52.512z"/>
			<path style="fill:#231F20;" d="M168.244,52.512c1.695,0,3.049,1.294,3.049,2.957c0,1.697-1.353,3.031-3.049,3.031
				c-1.694,0-3.049-1.334-3.049-3.031C165.195,53.805,166.549,52.512,168.244,52.512z M168.244,57.973
				c1.346,0,2.436-1.087,2.436-2.504c0-1.383-1.09-2.43-2.436-2.43c-1.354,0-2.435,1.046-2.435,2.43
				C165.809,56.886,166.889,57.973,168.244,57.973z"/>
			<path style="fill:#231F20;" d="M173.144,52.61h0.571l3.057,4.168c0.204,0.289,0.494,0.783,0.494,0.783h0.017
				c0,0-0.051-0.478-0.051-0.783V52.61h0.588v5.791h-0.571l-3.057-4.168c-0.204-0.288-0.494-0.782-0.494-0.782h-0.017
				c0,0,0.051,0.477,0.051,0.782v4.168h-0.588V52.61z"/>
			<path style="fill:#231F20;" d="M180.081,52.61h1.934c1.796,0,3.006,1.063,3.006,2.892c0,1.845-1.21,2.9-3.006,2.9h-1.934V52.61z
				 M181.954,57.891c1.474,0,2.453-0.841,2.453-2.39c0-1.54-0.987-2.38-2.453-2.38h-1.286v4.77H181.954z"/>
			<path style="fill:#231F20;" d="M186.905,52.61h0.588v5.791h-0.588V52.61z"/>
			<path style="fill:#231F20;" d="M191.097,53.121h-2.155V52.61h4.889v0.511h-2.146v5.28h-0.588V53.121z"/>
			<path style="fill:#231F20;" d="M195.282,52.61h0.588v5.791h-0.588V52.61z"/>
			<path style="fill:#231F20;" d="M200.768,52.512c1.695,0,3.049,1.294,3.049,2.957c0,1.697-1.353,3.031-3.049,3.031
				c-1.694,0-3.049-1.334-3.049-3.031C197.719,53.805,199.073,52.512,200.768,52.512z M200.768,57.973
				c1.346,0,2.436-1.087,2.436-2.504c0-1.383-1.09-2.43-2.436-2.43c-1.354,0-2.435,1.046-2.435,2.43
				C198.333,56.886,199.413,57.973,200.768,57.973z"/>
			<path style="fill:#231F20;" d="M205.669,52.61h0.571l3.057,4.168c0.205,0.289,0.494,0.783,0.494,0.783h0.017
				c0,0-0.051-0.478-0.051-0.783V52.61h0.588v5.791h-0.57l-3.058-4.168c-0.204-0.288-0.494-0.782-0.494-0.782h-0.017
				c0,0,0.051,0.477,0.051,0.782v4.168h-0.588V52.61z"/>
			<path style="fill:#231F20;" d="M212.605,52.61h0.588v5.791h-0.588V52.61z"/>
			<path style="fill:#231F20;" d="M215.451,52.61h0.571l3.057,4.168c0.205,0.289,0.494,0.783,0.494,0.783h0.017
				c0,0-0.051-0.478-0.051-0.783V52.61h0.588v5.791h-0.57l-3.058-4.168c-0.204-0.288-0.494-0.782-0.494-0.782h-0.017
				c0,0,0.051,0.477,0.051,0.782v4.168h-0.588V52.61z"/>
			<path style="fill:#231F20;" d="M225.002,52.512c1.388,0,2.129,0.676,2.129,0.676l-0.315,0.428c0,0-0.699-0.577-1.789-0.577
				c-1.448,0-2.427,1.08-2.427,2.455c0,1.425,1.013,2.479,2.376,2.479c1.167,0,1.883-0.848,1.883-0.848v-0.98h-1.022v-0.511h1.584
				v2.768h-0.545v-0.437c0-0.124,0.008-0.246,0.008-0.246h-0.017c0,0-0.69,0.782-1.95,0.782c-1.635,0-2.93-1.277-2.93-2.998
				C221.986,53.83,223.281,52.512,225.002,52.512z"/>
			<path style="fill:#EC1C24;" d="M234.989,52.61h0.588v2.636h3.475V52.61h0.588v5.791h-0.588v-2.644h-3.475v2.644h-0.588V52.61z"/>
			<path style="fill:#EC1C24;" d="M241.9,52.61h3.372v0.511h-2.785v2.109h2.274v0.511h-2.274v2.15h2.938v0.51H241.9V52.61z"/>
			<path style="fill:#EC1C24;" d="M250.24,56.556h-2.41l-0.681,1.845h-0.622l2.198-5.791h0.63l2.197,5.791h-0.622L250.24,56.556z
				 M249.032,53.212c0,0-0.128,0.478-0.23,0.75l-0.801,2.101h2.061l-0.783-2.101c-0.102-0.272-0.23-0.75-0.23-0.75H249.032z"/>
			<path style="fill:#EC1C24;" d="M254.017,53.121h-2.155V52.61h4.889v0.511h-2.146v5.28h-0.588V53.121z"/>
			<path style="fill:#EC1C24;" d="M261.014,52.61h2.07c1.072,0,1.847,0.676,1.847,1.747c0,1.08-0.775,1.771-1.847,1.771h-1.482
				v2.274h-0.588V52.61z M263.007,55.617c0.801,0,1.32-0.47,1.32-1.261c0-0.783-0.519-1.236-1.312-1.236h-1.414v2.496H263.007z"/>
			<path style="fill:#EC1C24;" d="M266.551,52.61h0.597v3.765c0,0.997,0.664,1.598,1.694,1.598c1.031,0,1.703-0.601,1.703-1.614
				V52.61h0.588v3.773c0,1.286-0.928,2.117-2.282,2.117c-1.363,0-2.3-0.831-2.3-2.117V52.61z"/>
			<path style="fill:#EC1C24;" d="M273.608,52.61h0.613l1.568,3.403c0.135,0.297,0.289,0.708,0.289,0.708h0.017
				c0,0,0.162-0.412,0.299-0.708l1.567-3.403h0.605l0.476,5.791h-0.588l-0.332-4.053c-0.026-0.313-0.018-0.807-0.018-0.807h-0.017
				c0,0-0.179,0.51-0.315,0.807l-1.405,2.974h-0.553l-1.405-2.974c-0.136-0.289-0.324-0.824-0.324-0.824h-0.017
				c0,0,0.008,0.511-0.018,0.824l-0.332,4.053h-0.588L273.608,52.61z"/>
			<path style="fill:#EC1C24;" d="M281.114,52.61h2.07c1.072,0,1.847,0.676,1.847,1.747c0,1.08-0.775,1.771-1.847,1.771h-1.482
				v2.274h-0.588V52.61z M283.107,55.617c0.801,0,1.32-0.47,1.32-1.261c0-0.783-0.519-1.236-1.312-1.236h-1.414v2.496H283.107z"/>
			<path style="fill:#EC1C24;" d="M286.636,57.323c0,0,0.622,0.634,1.568,0.634c0.655,0,1.192-0.379,1.192-1.005
				c0-1.458-2.989-1.088-2.989-2.883c0-0.832,0.758-1.557,1.865-1.557c1.039,0,1.601,0.56,1.601,0.56l-0.289,0.478
				c0,0-0.528-0.494-1.312-0.494c-0.767,0-1.261,0.486-1.261,0.996c0,1.376,2.989,0.981,2.989,2.884c0,0.865-0.69,1.565-1.814,1.565
				c-1.226,0-1.899-0.741-1.899-0.741L286.636,57.323z"/>
		</g>
	</g>
	<g>
		<path style="fill:#1B75BB;" d="M25.895,58.294c0-1.133,0-2.239,0-3.477c-2.045,0.791-3.957,1.531-5.931,2.295
			c-0.026-0.199-0.062-0.351-0.062-0.504c-0.004-1.639,0.011-3.279-0.013-4.917c-0.005-0.377,0.143-0.545,0.476-0.691
			c1.635-0.717,3.253-1.471,4.893-2.178c0.478-0.206,0.707-0.466,0.652-0.984c-0.059-0.554,0.133-1.244-0.147-1.63
			c-0.24-0.331-0.991-0.312-1.513-0.456c-0.472-0.13-0.96-0.23-1.407-0.418c-0.457-0.192-0.676-0.068-0.902,0.333
			c-0.541,0.963-1.131,1.9-1.702,2.847c-0.01,0.016-0.035,0.024-0.122,0.08c-0.683-0.381-1.4-0.782-2.116-1.182
			c-0.702-0.392-1.405-0.785-2.186-1.221c0.686-1.16,1.352-2.283,1.992-3.366c-0.769-0.787-1.506-1.558-2.273-2.302
			c-0.083-0.081-0.359-0.054-0.499,0.013c-0.44,0.211-0.837,0.518-1.29,0.691c-0.626,0.239-0.625,0.644-0.564,1.192
			c0.189,1.706,0.323,3.418,0.462,5.129c0.013,0.159-0.045,0.412-0.158,0.478c-1.652,0.951-3.318,1.878-5.073,2.863
			c-0.307-2.069-0.601-4.043-0.912-6.139c-1.079,0.589-2.087,1.141-3.151,1.722c-0.84-1.407-1.661-2.78-2.517-4.214
			c1.001-0.567,1.971-1.117,3.048-1.726c-1.629-1.229-3.186-2.404-4.819-3.636c1.119-0.631,2.179-1.231,3.242-1.827
			c0.592-0.333,1.199-0.643,1.779-0.995c0.339-0.206,0.593-0.19,0.92,0.045c1.377,0.987,2.783,1.938,4.161,2.924
			c0.325,0.232,0.583,0.26,0.922,0.049c0.555-0.345,1.133-0.656,1.687-0.973c-0.29-1.056-0.55-2.072-0.865-3.072
			c-0.048-0.153-0.35-0.324-0.539-0.328c-1.198-0.03-2.398-0.015-3.63-0.015c-0.029-0.174-0.072-0.311-0.072-0.447
			c-0.005-1.286,0.011-2.573-0.012-3.859c-0.007-0.415,0.148-0.541,0.559-0.533c1.008,0.018,2.016-0.003,3.025,0.008
			c0.419,0.004,0.623-0.09,0.714-0.566c0.174-0.909,0.463-1.8,0.754-2.683c0.105-0.319,0.059-0.468-0.23-0.646
			c-1.833-1.131-1.829-1.137-3.61,0.106c-0.973,0.679-1.954,1.348-2.915,2.043c-0.311,0.225-0.545,0.273-0.908,0.063
			C3.406,25.243,1.751,24.337,0,23.359c1.625-1.229,3.18-2.405,4.816-3.643c-1.055-0.598-2.009-1.139-3.042-1.726
			c0.837-1.402,1.663-2.786,2.517-4.217c1.051,0.578,2.047,1.125,3.149,1.731c0.31-2.078,0.605-4.063,0.914-6.138
			c0.759,0.424,1.456,0.815,2.155,1.205c0.89,0.496,1.771,1.01,2.676,1.478c0.387,0.2,0.479,0.442,0.437,0.846
			c-0.184,1.748-0.324,3.501-0.503,5.25c-0.042,0.413,0.098,0.64,0.481,0.825c0.61,0.294,1.188,0.65,1.773,0.976
			c0.854-0.895,1.68-1.76,2.591-2.715c-0.553-0.937-1.226-2.077-1.92-3.252c1.473-0.822,2.894-1.615,4.364-2.436
			c0.617,1.029,1.226,2,1.783,2.998c0.238,0.427,0.466,0.521,0.955,0.355c0.721-0.246,1.49-0.355,2.223-0.573
			c0.177-0.053,0.293-0.301,0.434-0.462c0.011-0.012,0.001-0.04,0.002-0.061c0.093-2.052,0.093-2.051-1.843-2.888
			c-1.132-0.489-2.266-0.975-3.388-1.485c-0.183-0.083-0.437-0.284-0.44-0.433c-0.03-1.926-0.02-3.852-0.02-5.884
			c1.909,0.746,3.733,1.458,5.659,2.21c0-1.19,0-2.259,0-3.377c1.684,0,3.299,0,5.014,0c0,1.104,0,2.212,0,3.472
			c2.064-0.797,3.989-1.54,5.976-2.307c0.018,0.25,0.041,0.428,0.041,0.606c0.003,1.556-0.027,3.113,0.018,4.668
			c0.015,0.512-0.188,0.724-0.629,0.915c-1.6,0.692-3.179,1.43-4.779,2.123c-0.453,0.196-0.665,0.449-0.62,0.943
			c0.054,0.597-0.163,1.336,0.131,1.756c0.253,0.36,1.059,0.358,1.621,0.515c0.266,0.074,0.566,0.094,0.795,0.228
			c0.676,0.395,0.964,0.058,1.262-0.491c0.487-0.898,1.039-1.762,1.566-2.639c0.02-0.034,0.062-0.056,0.161-0.144
			c1.408,0.785,2.84,1.584,4.318,2.408c-0.612,1.026-1.186,2.017-1.792,2.988c-0.231,0.371-0.274,0.598,0.132,0.925
			c0.673,0.541,1.273,1.172,1.874,1.791c0.245,0.252,0.443,0.356,0.755,0.125c0.186-0.137,0.401-0.238,0.605-0.352
			c1.529-0.854,1.515-0.853,1.33-2.567c-0.151-1.398-0.267-2.801-0.381-4.202c-0.013-0.159,0.034-0.413,0.144-0.476
			c1.652-0.95,3.318-1.875,5.077-2.86c0.313,2.074,0.613,4.059,0.927,6.138c1.097-0.604,2.092-1.152,3.141-1.728
			c0.851,1.422,1.672,2.795,2.523,4.217c-1.004,0.566-1.978,1.116-3.055,1.723c1.629,1.229,3.189,2.406,4.82,3.636
			c-0.707,0.4-1.361,0.773-2.018,1.142c-1,0.561-2.008,1.11-2.999,1.686c-0.341,0.198-0.587,0.187-0.917-0.052
			c-1.357-0.978-2.748-1.912-4.108-2.887c-0.363-0.26-0.647-0.29-1.032-0.047c-0.607,0.383-1.25,0.712-1.857,1.052
			c0.291,1.14,0.555,2.24,0.871,3.326c0.04,0.136,0.349,0.274,0.538,0.281c0.878,0.03,1.759,0.015,2.638,0.016
			c0.232,0,0.463,0,0.741,0c0,1.633,0,3.195,0,4.834c-1.108,0-2.197,0.028-3.283-0.012c-0.526-0.019-0.692,0.193-0.793,0.647
			c-0.167,0.744-0.39,1.477-0.625,2.205c-0.106,0.328-0.06,0.505,0.266,0.696c1.712,1.003,1.705,1.013,3.345-0.129
			c1.026-0.714,2.045-1.438,3.087-2.129c0.175-0.116,0.513-0.199,0.67-0.115c1.735,0.934,3.45,1.905,5.221,2.895
			c-0.844,0.637-1.634,1.235-2.426,1.832c-0.774,0.583-1.549,1.165-2.402,1.807c1.057,0.597,2.029,1.147,3.049,1.723
			c-0.842,1.412-1.661,2.786-2.516,4.219c-1.046-0.575-2.042-1.124-3.144-1.73c-0.313,2.077-0.612,4.064-0.924,6.138
			c-1.381-0.771-2.674-1.493-3.966-2.215c-0.056-0.031-0.106-0.077-0.166-0.094c-1.023-0.302-1.208-0.986-1.076-1.935
			c0.214-1.535,0.337-3.083,0.464-4.629c0.016-0.192-0.182-0.401-0.283-0.6c-0.008-0.015-0.036-0.02-0.055-0.031
			c-0.578-0.313-1.177-0.898-1.728-0.858c-0.487,0.035-0.921,0.765-1.377,1.189c-0.139,0.129-0.272,0.265-0.411,0.395
			c-0.747,0.693-0.749,0.694-0.22,1.591c0.506,0.859,1.017,1.715,1.559,2.629c-1.47,0.823-2.889,1.618-4.359,2.441
			c-0.714-1.182-1.412-2.336-2.087-3.453c-1.082,0.27-2.095,0.504-3.093,0.791c-0.178,0.051-0.291,0.319-0.431,0.489
			c-0.011,0.013-0.001,0.04-0.002,0.061c-0.09,1.945-0.09,1.947,1.754,2.756c1.168,0.512,2.345,1.008,3.502,1.542
			c0.187,0.086,0.417,0.333,0.42,0.509c0.027,1.846,0.012,3.693,0.006,5.539c0,0.056-0.04,0.111-0.082,0.222
			c-1.821-0.713-3.63-1.421-5.562-2.178c0,1.187,0,2.267,0,3.388C29.242,58.294,27.642,58.294,25.895,58.294z M36.756,37.745
			c-0.806-0.467-1.512-0.875-2.256-1.306c0.855-1.432,1.676-2.804,2.513-4.205c0.772,0.419,1.487,0.808,2.288,1.243
			c0.705-2.288,0.73-4.448-0.033-6.68c-0.708,0.382-1.331,0.719-1.994,1.076c-0.853-1.432-1.671-2.804-2.503-4.201
			c0.666-0.395,1.271-0.754,1.935-1.148c-1.669-1.656-3.533-2.756-5.904-3.249c0,0.681-0.016,1.258,0.006,1.833
			c0.015,0.399-0.137,0.553-0.557,0.548c-1.286-0.017-2.573-0.025-3.859,0.004c-0.508,0.012-0.619-0.19-0.594-0.627
			c0.032-0.567,0.008-1.138,0.008-1.79c-2.373,0.539-4.27,1.575-5.893,3.235c0.743,0.423,1.398,0.796,2.082,1.185
			c-0.857,1.433-1.678,2.805-2.52,4.214c-0.732-0.398-1.416-0.769-2.174-1.181c-0.766,2.32-0.788,4.557-0.002,6.884
			c0.793-0.431,1.493-0.812,2.235-1.216c0.848,1.424,1.676,2.814,2.513,4.22c-0.741,0.423-1.416,0.808-2.171,1.239
			c1.686,1.685,3.61,2.758,6.026,3.262c0-0.731,0.013-1.368-0.005-2.004c-0.01-0.372,0.138-0.517,0.526-0.513
			c1.329,0.013,2.659,0.015,3.988,0c0.414-0.005,0.504,0.178,0.492,0.531c-0.02,0.612-0.006,1.224-0.006,1.932
			C33.253,40.492,35.108,39.405,36.756,37.745z"/>
	</g>
</g>
</svg>
